<?xml version="1.0" encoding="UTF-8"?>
<svg width="1e3" height="1e3" version="1.1" viewBox="0 0 1e3 1e3" xmlns="http://www.w3.org/2000/svg">
 <path id="circle" fill="#000" d="m500 212a288 288 0 0 0-288 288 288 288 0 0 0 288 288 288 288 0 0 0 288-288 288 288 0 0 0-0.46484-15.713c-4.8555 0.44762-9.802 0.75-14.943 0.75-22.568 0-42.235-5.2435-59-15.729-16.442-10.485-31.434-22.541-44.975-36.172-13.541-13.98-26.758-26.212-39.654-36.697-12.896-10.835-26.922-16.252-42.074-16.252-20.956 0-39.009 8.562-54.162 25.688-15.153 16.776-29.016 37.746-41.59 62.91l-58.031-30.932c9.672-20.621 21.118-41.241 34.336-61.861 13.541-20.621 30.144-37.746 49.811-51.377 19.666-13.631 43.846-20.445 72.539-20.445 24.18 0 44.651 5.2435 61.416 15.729 17.087 10.485 32.241 22.717 45.459 36.697 13.218 13.631 25.954 25.863 38.205 36.697 11.593 9.9214 24.354 15.09 38.256 15.623a288 288 0 0 0-273.13-196.92zm273.13 196.92a288 288 0 0 1 14.408 75.371c21.938-2.0225 41.009-8.5349 57.111-19.695 19.989-13.98 36.754-31.106 50.295-51.377 13.541-20.621 24.986-40.891 34.336-60.812l-58.033-32.504c-12.574 25.164-26.759 46.308-42.557 63.434-15.475 17.126-33.207 25.689-53.195 25.689-0.79721 0-1.5755-0.0752-2.3652-0.10546z"/>
</svg>