<?xml version="1.0" encoding="UTF-8"?>
<svg width="1e3" height="1e3" version="1.1" viewBox="0 0 1e3 1e3" xmlns="http://www.w3.org/2000/svg">
 <g>
  <rect id="rect" width="1e3" height="1e3" fill="#3e3939"/>
  <ellipse cx="499.98" cy="500" rx="287.69" ry="287.72" fill="#202020"/>
  <path fill="#fff" d="m589.79 304.17q36.27 0 61.417 15.728 25.631 15.728 45.458 36.698 19.827 20.446 38.204 36.698 18.377 15.728 40.622 15.728 29.983 0 53.196-25.688 23.696-25.688 42.557-63.434l58.032 32.504q-14.024 29.882-34.335 60.813-20.311 30.407-50.294 51.377-29.499 20.446-72.056 20.446-33.852 0-58.999-15.728-24.663-15.728-44.975-36.173-20.311-20.97-39.655-36.698-19.344-16.252-42.073-16.252-31.434 0-54.163 25.688-22.729 25.164-41.589 62.91l-58.032-30.931q14.508-30.931 34.335-61.862 20.311-30.931 49.811-51.377 29.499-20.446 72.54-20.446z"/>
 </g>
</svg>
